<svg width="107" height="46" viewBox="0 0 107 46" fill="none" xmlns="http://www.w3.org/2000/svg">
<g clip-path="url(#clip0)">
<path fill-rule="evenodd" clip-rule="evenodd" d="M71.4609 16.2836H60.9424L59.9784 21.1343H69.0652L68.0303 26.4286H58.9436L57.9371 31.5083H68.6683L68.2713 33.5402C67.9028 35.429 66.2584 36.8026 64.3446 36.8026H50.8916L55.3429 14.4234C55.7398 12.4345 57.4693 11.0036 59.4823 11.0036H72.4958L71.4609 16.2836Z" fill="#FFF"/>
<path fill-rule="evenodd" clip-rule="evenodd" d="M88.9399 16.3265H78.4922L77.4999 21.3203H86.4165L85.3817 26.5717H76.4367L75.1609 33.0107C74.7356 35.1428 72.8785 36.6881 70.7238 36.6881H68.5123L72.8643 14.8241C73.3038 12.6491 75.1892 11.0751 77.4007 11.0751H89.9747L88.9399 16.3265Z" fill="#FFF"/>
<path fill-rule="evenodd" clip-rule="evenodd" d="M94.6528 36.4735C90.9954 36.4735 88.2736 35.8153 85.807 32.9535L90.0881 29.1759C90.641 29.8198 91.2222 30.2491 91.8459 30.5496C93.8022 31.4797 99.019 31.4224 99.019 28.6179C99.019 27.187 98.055 26.7863 96.9067 26.4859L95.1347 26.0137C91.2789 25.012 89.3226 22.9229 89.3226 19.8179C89.3226 14.452 93.3202 10.9893 99.5293 10.9893C102.35 10.9893 105.228 11.8764 107.014 14.1945L102.875 17.8719C101.797 16.5268 100.493 16.2263 98.863 16.2263C96.6232 16.2263 95.234 17.6 95.234 18.8735C95.234 20.1184 96.2405 20.3902 97.2328 20.6621L99.1607 21.1629C103.343 22.2504 104.973 24.1535 104.973 27.9597C104.959 34.227 99.6427 36.4735 94.6528 36.4735Z" fill="#FFF"/>
<path fill-rule="evenodd" clip-rule="evenodd" d="M54.0387 43.9571V41.2241H55.8249V41.6963H54.5774V42.3402H55.6406V42.8124H54.5774V43.4706H55.8249V43.9571H54.0387Z" fill="#FFF"/>
<path fill-rule="evenodd" clip-rule="evenodd" d="M57.7669 43.9714C57.3558 43.9714 57.044 43.8855 56.7746 43.6137L57.1149 43.2702C57.285 43.4419 57.5118 43.4992 57.7669 43.4992C58.0788 43.4992 58.2489 43.3847 58.2489 43.1558C58.2489 43.0556 58.2206 42.9841 58.1639 42.9268C58.1072 42.8839 58.0505 42.8553 57.9229 42.8267L57.5968 42.7837C57.37 42.7551 57.1999 42.6836 57.0723 42.5548C56.9447 42.426 56.8739 42.2543 56.8739 42.0254C56.8739 41.5389 57.2283 41.1954 57.8095 41.1954C58.1781 41.1954 58.4474 41.2813 58.6884 41.5102L58.3482 41.8393C58.1781 41.6819 57.9654 41.6533 57.7953 41.6533C57.5118 41.6533 57.3842 41.8107 57.3842 41.9967C57.3842 42.0683 57.4125 42.1398 57.4693 42.1971C57.526 42.24 57.611 42.2829 57.7244 42.2972L58.0363 42.3402C58.2773 42.3688 58.4332 42.4403 58.5466 42.5548C58.6884 42.6979 58.7593 42.8982 58.7593 43.1272C58.7734 43.6709 58.334 43.9714 57.7669 43.9714Z" fill="#FFF"/>
<path fill-rule="evenodd" clip-rule="evenodd" d="M60.9707 41.6963H60.4746V42.4403H60.9707C61.2117 42.4403 61.3677 42.2972 61.3677 42.0683C61.3677 41.8393 61.2117 41.6963 60.9707 41.6963ZM60.9991 42.9268H60.4746V43.9571H59.95V41.2241H60.9991C61.552 41.2241 61.8922 41.6104 61.8922 42.0683C61.8922 42.5405 61.552 42.9268 60.9991 42.9268Z" fill="#FFF"/>
<path fill-rule="evenodd" clip-rule="evenodd" d="M64.2596 41.825C64.1887 41.7392 64.0611 41.6819 63.9193 41.6819C63.7776 41.6819 63.65 41.7392 63.5791 41.825C63.4799 41.9395 63.4515 42.0683 63.4515 42.5977C63.4515 43.1272 63.4799 43.2416 63.5791 43.3704C63.65 43.4563 63.7776 43.5135 63.9193 43.5135C64.0611 43.5135 64.1745 43.4563 64.2596 43.3704C64.3588 43.2559 64.3871 43.1272 64.3871 42.5977C64.3871 42.0683 64.3588 41.9395 64.2596 41.825ZM64.6423 43.6709C64.458 43.8569 64.217 43.9714 63.9193 43.9714C63.6075 43.9714 63.3806 43.8712 63.1822 43.6709C62.9128 43.399 62.9128 43.0556 62.9128 42.5834C62.9128 42.1112 62.8987 41.7678 63.1822 41.4959C63.3665 41.3099 63.6075 41.1954 63.9193 41.1954C64.2312 41.1954 64.458 41.2956 64.6423 41.4959C64.9116 41.7678 64.9116 42.1112 64.9116 42.5834C64.9116 43.0556 64.9258 43.399 64.6423 43.6709Z" fill="#FFF"/>
<path fill-rule="evenodd" clip-rule="evenodd" d="M67.1656 41.6963H66.6695V42.4117H67.1656C67.3924 42.4117 67.5484 42.2686 67.5484 42.054C67.5484 41.8393 67.3924 41.6963 67.1656 41.6963ZM67.5767 43.9571L67.0522 42.8696H66.6695V43.9571H66.145V41.2241H67.2081C67.761 41.2241 68.087 41.5961 68.087 42.054C68.087 42.4403 67.8602 42.6693 67.5909 42.7694L68.2004 43.9428H67.5767V43.9571Z" fill="#FFF"/>
<path fill-rule="evenodd" clip-rule="evenodd" d="M70.3268 41.6963V43.9571H69.8023V41.6963H69.0935V41.2241H71.0356V41.6963H70.3268Z" fill="#FFF"/>
<path fill-rule="evenodd" clip-rule="evenodd" d="M72.1414 43.9571V41.2241H73.9275V41.6963H72.68V42.3402H73.7432V42.8124H72.68V43.4706H73.9275V43.9571H72.1414Z" fill="#FFF"/>
<path fill-rule="evenodd" clip-rule="evenodd" d="M77.2163 41.6963V42.3688H78.2795V42.841H77.2163V43.9571H76.6918V41.2241H78.4638V41.6963H77.2163Z" fill="#FFF"/>
<path d="M80.1366 41.2241H79.6121V43.9571H80.1366V41.2241Z" fill="#FFF"/>
<path fill-rule="evenodd" clip-rule="evenodd" d="M83.0426 43.9571L81.9795 42.2829V43.9571H81.4408V41.2241H81.9228L82.9859 42.8982V41.2241H83.5105V43.9571H83.0426Z" fill="#FFF"/>
<path fill-rule="evenodd" clip-rule="evenodd" d="M86.0763 41.825C86.0054 41.7392 85.8779 41.6819 85.7361 41.6819C85.5943 41.6819 85.4668 41.7392 85.3959 41.825C85.2967 41.9395 85.2683 42.0683 85.2683 42.5977C85.2683 43.1272 85.2967 43.2416 85.3959 43.3704C85.4668 43.4563 85.5943 43.5135 85.7361 43.5135C85.8779 43.5135 85.9913 43.4563 86.0763 43.3704C86.1756 43.2559 86.2039 43.1272 86.2039 42.5977C86.2039 42.0683 86.1756 41.9395 86.0763 41.825ZM86.4591 43.6709C86.2748 43.8569 86.0338 43.9714 85.7361 43.9714C85.4242 43.9714 85.1974 43.8712 84.9989 43.6709C84.7296 43.399 84.7296 43.0556 84.7296 42.5834C84.7296 42.1112 84.7154 41.7678 84.9989 41.4959C85.1832 41.3099 85.4242 41.1954 85.7361 41.1954C86.048 41.1954 86.2748 41.2956 86.4591 41.4959C86.7284 41.7678 86.7284 42.1112 86.7284 42.5834C86.7284 43.0556 86.7426 43.399 86.4591 43.6709Z" fill="#FFF"/>
<path fill-rule="evenodd" clip-rule="evenodd" d="M90.2582 43.9714C89.8471 43.9714 89.5352 43.8855 89.2659 43.6137L89.6061 43.2702C89.7762 43.4419 90.003 43.4992 90.2582 43.4992C90.5701 43.4992 90.7402 43.3847 90.7402 43.1558C90.7402 43.0556 90.7118 42.9841 90.6551 42.9268C90.5984 42.8839 90.5417 42.8553 90.4141 42.8267L90.0881 42.7837C89.8613 42.7551 89.6912 42.6836 89.5636 42.5548C89.436 42.426 89.3651 42.2543 89.3651 42.0254C89.3651 41.5389 89.7195 41.1954 90.3007 41.1954C90.6693 41.1954 90.9387 41.2813 91.1796 41.5102L90.8394 41.8393C90.6693 41.6819 90.4567 41.6533 90.2866 41.6533C90.003 41.6533 89.8755 41.8107 89.8755 41.9967C89.8755 42.0683 89.9038 42.1398 89.9605 42.1971C90.0172 42.24 90.1023 42.2829 90.2157 42.2972L90.5417 42.3402C90.7827 42.3688 90.9386 42.4403 91.0521 42.5548C91.1938 42.6979 91.2647 42.8982 91.2647 43.1272C91.2647 43.6709 90.8252 43.9714 90.2582 43.9714Z" fill="#FFF"/>
<path fill-rule="evenodd" clip-rule="evenodd" d="M93.4762 41.6963V43.9571H92.9375V41.6963H92.2429V41.2241H94.1708V41.6963H93.4762Z" fill="#FFF"/>
<path fill-rule="evenodd" clip-rule="evenodd" d="M96.4531 41.825C96.3822 41.7392 96.2546 41.6819 96.1128 41.6819C95.9711 41.6819 95.8435 41.7392 95.7726 41.825C95.6734 41.9395 95.645 42.0683 95.645 42.5977C95.645 43.1272 95.6734 43.2416 95.7726 43.3704C95.8435 43.4563 95.9711 43.5135 96.1128 43.5135C96.2546 43.5135 96.368 43.4563 96.4531 43.3704C96.5523 43.2559 96.5806 43.1272 96.5806 42.5977C96.5948 42.0683 96.5523 41.9395 96.4531 41.825ZM96.85 43.6709C96.6657 43.8569 96.4247 43.9714 96.127 43.9714C95.8151 43.9714 95.5883 43.8712 95.3899 43.6709C95.1205 43.399 95.1205 43.0556 95.1205 42.5834C95.1205 42.1112 95.1064 41.7678 95.3899 41.4959C95.5742 41.3099 95.8151 41.1954 96.127 41.1954C96.4389 41.1954 96.6657 41.2956 96.85 41.4959C97.1193 41.7678 97.1193 42.1112 97.1193 42.5834C97.1193 43.0556 97.1193 43.399 96.85 43.6709Z" fill="#FFF"/>
<path fill-rule="evenodd" clip-rule="evenodd" d="M99.3592 41.6963H98.863V42.4117H99.3592C99.586 42.4117 99.7419 42.2686 99.7419 42.054C99.7419 41.8393 99.586 41.6963 99.3592 41.6963ZM99.7703 43.9571L99.2458 42.8696H98.863V43.9571H98.3385V41.2241H99.4017C99.9546 41.2241 100.281 41.5961 100.281 42.054C100.281 42.4403 100.054 42.6693 99.7844 42.7694L100.394 43.9428H99.7703V43.9571Z" fill="#FFF"/>
<path fill-rule="evenodd" clip-rule="evenodd" d="M101.5 43.9571V41.2241H103.286V41.6963H102.024V42.3402H103.087V42.8124H102.024V43.4706H103.286V43.9571H101.5Z" fill="#FFF"/>
<path fill-rule="evenodd" clip-rule="evenodd" d="M0 15.2247L8.43468 21.907L36.3471 14.2803L25.3041 13.8081L20.1582 0L14.9414 13.8797L0 15.2247ZM6.0106 33.1538L16.9261 25.6273L8.46304 28.5034L10.9013 23.8816L28.6212 19.0452L22.9508 22.8514L27.232 28.4319L20.2574 30.478L0.297695 44L6.0106 33.1538ZM26.5941 23.438L40.0045 14.452L31.0453 23.8816L40.0045 35.3717L25.1339 31.6943L31.4848 29.8198L26.5941 23.438Z" fill="#FFF"/>
</g>
<defs>
<clipPath id="clip0">
<rect width="107" height="46" fill="white"/>
</clipPath>
</defs>
</svg>
