<svg data-v-76ff1df8="" data-v-4c141cc4="" width="217" height="40" viewBox="0 0 217 40" fill="none" xmlns="http://www.w3.org/2000/svg" alt="Logo"><path data-v-76ff1df8="" d="M59.2608 0L47.0698 12.2034V0H30.1295L0 30.2003V40H17.9688V31.4946L29.343 20.1541V39.9692H47.0698V31.4638L58.444 20.1541V39.9692H76.1708V0H59.2608ZM14.5202 29.9846V36.4561H3.47881V31.6487L31.5815 3.5131H41.1105L14.5202 29.9846ZM43.6212 29.9846V36.4561H32.8218V16.7026L43.6212 5.94761V20.6163L60.6825 3.5131H70.2114L43.6212 29.9846ZM61.9228 36.4561V16.7026L72.7222 5.94761V36.4561H61.9228Z" fill="#FFF"></path> <path data-v-76ff1df8="" d="M17.9698 0H0.03125V26.0401L17.9698 8.07396V0ZM14.5212 6.59476L3.47981 17.6271V3.5131H14.491V6.59476H14.5212Z" fill="#FFF"></path> <path data-v-76ff1df8="" d="M91.0547 10.1387H94.7755V28.9985H91.0547V10.1387Z" fill="#FFF"></path> <path data-v-76ff1df8="" d="M115.709 10.1694V28.9984H112.412V17.7195L109.931 24.3759H107.451L104.97 17.7195L104.94 28.9984H101.582L101.612 10.1694H105.999L108.661 17.5962L111.383 10.1694H115.709Z" fill="#FFF"></path> <path data-v-76ff1df8="" d="M131.469 10.1387L133.95 12.6349V26.4715L131.469 28.9985H125.207L122.727 26.4715V12.6349L125.207 10.1079H131.469V10.1387ZM129.503 25.547L130.198 24.8383V14.2373L129.563 13.5594H127.173L126.478 14.2682V24.8691L127.143 25.547H129.503Z" fill="#FFF"></path> <path data-v-76ff1df8="" d="M151.919 12.6348V17.7196L150.376 19.2912L151.919 20.832V26.5639L149.529 28.9985H140.727V10.1387H149.469L151.919 12.6348ZM144.447 18.9522L147.382 17.4114L148.168 16.6102V14.4838L147.351 13.6826H144.447V18.9522ZM148.168 22.0339L147.382 21.2327L144.447 22.7735V25.6703H147.351L148.168 24.869V22.0339Z" fill="#FFF"></path> <path data-v-76ff1df8="" d="M158.785 10.1387H162.506V28.9985H158.785V10.1387Z" fill="#FFF"></path> <path data-v-76ff1df8="" d="M173.064 10.1079V25.5779H180.324V28.9985H169.312V10.1079H173.064Z" fill="#FFF"></path> <path data-v-76ff1df8="" d="M190.974 10.1079V25.5779H198.234V28.9985H187.223V10.1079H190.974Z" fill="#FFF"></path> <path data-v-76ff1df8="" d="M216.169 10.1387V13.5593H208.94V17.5963H214.385V20.9553H208.94V25.5778H216.169V28.9985H205.219V27.6117V10.1387H216.169Z" fill="#FFF"></path></svg>
