<svg width="297" height="23" viewBox="0 0 297 23" fill="none" xmlns="http://www.w3.org/2000/svg">
<g clip-path="url(#clip0)">
<path d="M104.003 18.2241L96.2375 0H95.677L95.0172 1.52965L87.8638 17.9904C87.1566 19.6178 86.5443 20.6375 85.9795 21.1474C85.6949 21.4236 85.1171 21.6573 84.19 21.7975V22.4009H91.2055V21.7975C90.1232 21.704 89.4161 21.5638 89.0841 21.2876C88.9414 21.1845 88.8248 21.0503 88.7433 20.8956C88.6618 20.7408 88.6175 20.5697 88.6141 20.3953C88.6872 19.7344 88.8785 19.0914 89.1789 18.496L90.6881 15.0161H99.3119L100.674 18.2156C101.019 18.9191 101.24 19.6746 101.33 20.4506C101.331 20.6305 101.289 20.8082 101.207 20.9692C101.126 21.1301 101.007 21.2698 100.86 21.3769C100.313 21.6744 99.6948 21.8212 99.0704 21.8018V22.4051H107.871V21.7975C107.086 21.8076 106.322 21.5443 105.715 21.0539C105.18 20.6375 104.616 19.6603 104.003 18.2241ZM95.0172 13.8646H91.2055L95.0172 5.14558L95.0604 5.00961L98.8721 13.8646H95.0172ZM74.402 0.509884V1.06651H75.204C75.7345 1.07743 76.253 1.22384 76.7089 1.49141C77.0076 1.63671 77.2422 1.88451 77.3686 2.18825C77.5683 2.89712 77.6484 3.63352 77.6058 4.368V18.5045C77.6058 19.8529 77.462 20.6871 77.1746 21.0072C76.9287 21.2791 76.6228 21.4917 76.2804 21.6287C75.938 21.7657 75.5683 21.8235 75.1997 21.7975H74.6823V22.4009H83.9529V21.7975H83.1509C82.6258 21.7958 82.1091 21.6674 81.646 21.4236C81.3432 21.2685 81.0963 21.0252 80.9389 20.7268C80.7717 19.9982 80.7093 19.2502 80.7534 18.5045V4.3595C80.7534 3.0593 80.844 2.23499 81.1286 1.89932C81.5598 1.34269 82.2109 1.04951 83.1509 1.04951H83.9529V0.509884H74.402ZM74.5443 21.7975C73.5534 21.6873 72.5939 21.387 71.72 20.9137C70.6593 20.1014 69.7515 19.112 69.038 17.9904L64.4242 11.6848C66.3085 11.3152 67.6711 10.6183 68.568 9.59856C69.4581 8.65497 69.9472 7.41107 69.9349 6.12285C69.9379 4.93745 69.5216 3.78807 68.7577 2.87234C68.0119 1.98363 67.0109 1.33786 65.886 1.01977C64.7979 0.713773 63.6753 0.542494 62.5443 0.509884H52.5191V1.06651H53.3814C53.731 1.04714 54.0805 1.1037 54.4054 1.23219C54.7303 1.36069 55.0225 1.55797 55.2614 1.81009C55.5891 2.13301 55.7314 2.96582 55.7314 4.3595V18.5045C55.7314 19.7537 55.6409 20.5441 55.4037 20.9137C54.9725 21.5171 54.3214 21.7975 53.3814 21.7975H52.5191V22.4009H62.0915V21.7975H61.1946C60.8562 21.8191 60.517 21.768 60.2006 21.6476C59.8842 21.5273 59.5981 21.3407 59.3621 21.1007C59.03 20.7268 58.8878 19.894 58.8878 18.5045V12.1522H61.1946L62.5615 13.9581L68.775 22.4009H74.4193V21.7975H74.5443ZM59.7674 11.1282H58.8705V2.03953C59.7193 1.84424 60.5863 1.73602 61.4576 1.71661C61.8202 1.72248 62.1819 1.75372 62.5399 1.81009C63.4343 1.95101 64.2585 2.37276 64.8899 3.01256C65.3406 3.44768 65.6918 3.97258 65.9201 4.55219C66.1484 5.1318 66.2485 5.75276 66.2137 6.37354C66.2243 7.02232 66.0859 7.66505 65.8089 8.25369C65.5319 8.84233 65.1234 9.36163 64.614 9.77277C64.0011 10.247 63.297 10.594 62.5443 10.7925C61.6395 11.0337 60.7045 11.1468 59.7674 11.1282ZM14.3543 17.6207L6.30401 0.509884H0V1.06651C0.673544 1.04342 1.34498 1.15321 1.97485 1.38943C2.32573 1.57647 2.62251 1.84845 2.83724 2.17975C3.05664 2.86619 3.15152 3.58537 3.11751 4.30427V18.598C3.11751 19.8005 3.02265 20.5908 2.78981 20.9605C2.54882 21.2541 2.23849 21.4851 1.88595 21.6333C1.53341 21.7814 1.1494 21.8422 0.76752 21.8103H0V22.4136H7.71832V21.7975H6.96373C6.07117 21.7975 5.41145 21.5638 5.03631 21.1007C4.70861 20.7735 4.56631 19.9407 4.56631 18.598V3.98984L13.1901 22.4009H13.755L22.3055 3.98984V18.598C22.3055 19.8005 22.2106 20.5908 21.9778 20.9605C21.7368 21.2541 21.4265 21.4851 21.0739 21.6333C20.7214 21.7814 20.3374 21.8422 19.9555 21.8103H19.1535V22.4136H28.6138V21.7975H27.8592C27.5058 21.8278 27.1499 21.781 26.8168 21.6606C26.4837 21.5402 26.1816 21.349 25.9318 21.1007C25.6472 20.7735 25.4575 19.9407 25.4575 18.598V4.31277C25.4575 3.0593 25.5998 2.27323 25.837 1.94606C26.0724 1.64435 26.3809 1.40572 26.7342 1.25205C27.0876 1.09838 27.4744 1.03458 27.8592 1.06651H28.6138V0.509884H22.3055L14.3543 17.6207ZM294.835 21.0539C294.365 20.629 293.801 19.6603 293.141 18.2241L285.375 0H284.815L284.155 1.52965L277.001 17.9904C276.294 19.6178 275.682 20.6375 275.117 21.1474C274.884 21.4236 274.255 21.6106 273.392 21.7975H273.345V22.4009H280.36V21.7975C279.278 21.704 278.571 21.5638 278.243 21.2876C278.097 21.187 277.976 21.0538 277.892 20.8988C277.807 20.7438 277.76 20.5713 277.756 20.3953C277.827 19.7345 278.017 19.0913 278.317 18.496L279.826 15.0161H288.45L289.812 18.2156C290.157 18.9162 290.38 19.6688 290.472 20.4421C290.473 20.622 290.431 20.7997 290.349 20.9607C290.268 21.1217 290.149 21.2613 290.002 21.3684C289.455 21.6659 288.837 21.8127 288.212 21.7933V22.3966H297.013V21.7975C296.22 21.8127 295.448 21.5491 294.835 21.0539ZM284.155 13.8646H280.343L284.155 5.14558L284.202 5.00961L288.036 13.8646H284.155ZM48.565 18.2241L40.8467 0H40.2387L39.579 1.52965L32.4256 17.9904C31.7184 19.6178 31.1061 20.6375 30.5413 21.1474C30.3084 21.4236 29.6789 21.6573 28.7561 21.7975V22.4009H35.7888V21.7975C34.7066 21.704 33.9994 21.5638 33.7148 21.2876C33.555 21.1968 33.4215 21.067 33.3271 20.9108C33.2328 20.7546 33.1807 20.5771 33.1758 20.3953C33.249 19.7344 33.4402 19.0914 33.7407 18.496L35.2455 15.0161H43.9082L45.2018 18.2156C45.5464 18.9162 45.7694 19.6688 45.8615 20.4421C45.8637 20.6222 45.8222 20.8003 45.7405 20.9614C45.6587 21.1225 45.5391 21.2621 45.3915 21.3684C45.1112 21.6021 44.4989 21.7423 43.6063 21.7933V22.3966H52.407V21.7975C51.6318 21.8108 50.8781 21.5466 50.2855 21.0539C49.7896 20.6375 49.2248 19.6603 48.565 18.2241ZM39.579 13.8646H35.7888L39.6006 5.14558L39.648 5.00961L43.4597 13.8646H39.579ZM240.057 0.509884V1.06651H240.859C241.39 1.07113 241.911 1.218 242.364 1.49141C242.675 1.63543 242.925 1.88189 243.071 2.18825C243.242 2.90177 243.305 3.63638 243.256 4.368V18.5045C243.256 19.8515 243.118 20.6843 242.881 21.0072C242.629 21.2833 242.315 21.4982 241.964 21.6353C241.613 21.7724 241.235 21.8279 240.859 21.7975H240.057V22.4009H249.612V21.7975H248.797C248.273 21.79 247.758 21.662 247.292 21.4236C247.014 21.2554 246.788 21.0141 246.641 20.7268C246.444 20.0029 246.364 19.253 246.404 18.5045V4.3595C246.404 3.0593 246.546 2.23499 246.835 1.89932C247.069 1.60996 247.372 1.38131 247.716 1.23321C248.06 1.08512 248.436 1.02206 248.81 1.04951H249.138V0.509884H240.057ZM114.736 18.9209C114.509 18.6985 114.24 18.5225 113.944 18.4029C113.648 18.2833 113.331 18.2225 113.011 18.2241C112.374 18.2243 111.76 18.4558 111.286 18.8742C111.06 19.0973 110.881 19.3624 110.76 19.6542C110.638 19.9459 110.577 20.2585 110.579 20.5738C110.572 20.8897 110.632 21.2036 110.753 21.4959C110.875 21.7883 111.056 22.0529 111.286 22.2734C111.513 22.4956 111.782 22.6713 112.078 22.7902C112.374 22.9091 112.691 22.9688 113.011 22.966C113.322 22.9742 113.632 22.92 113.922 22.8068C114.212 22.6936 114.476 22.5237 114.697 22.3074L114.93 22.0737C115.255 21.6471 115.422 21.1239 115.404 20.5908C115.415 20.0587 115.248 19.5378 114.93 19.1079C114.83 19.0611 114.783 18.9677 114.736 18.9209ZM174.201 19.2906C173.711 19.9007 173.061 20.3666 172.321 20.6375C171.137 20.9332 169.915 21.0577 168.695 21.0072H167.095C165.638 21.0072 164.788 20.9605 164.508 20.8202C164.387 20.7846 164.275 20.7252 164.177 20.6456C164.08 20.566 164.001 20.4679 163.943 20.3571C163.715 19.7668 163.619 19.1348 163.663 18.5045V4.72917C163.663 3.42897 163.753 2.60466 163.943 2.27323C164.131 1.87123 164.467 1.55505 164.883 1.38943C165.689 1.14242 166.532 1.0332 167.375 1.06651V0.509884H157.324V1.06651H158.187C158.537 1.0468 158.887 1.10319 159.213 1.23168C159.538 1.36018 159.831 1.55764 160.071 1.81009C160.403 2.13301 160.541 3.01256 160.541 4.3595V18.5045C160.541 19.7537 160.403 20.5441 160.213 20.9137C159.782 21.5171 159.131 21.7975 158.187 21.7975H157.324V22.4009H174.55L176.478 16.4183L175.926 16.3248C175.519 17.3996 174.937 18.4014 174.201 19.2906ZM195.493 16.8814C194.945 17.9995 194.23 19.0306 193.372 19.9407C192.939 20.4037 192.386 20.7404 191.772 20.9137C190.865 21.1357 189.93 21.2302 188.995 21.1942H185.231C184.799 21.2329 184.365 21.1688 183.963 21.0072C183.76 20.8965 183.606 20.7145 183.532 20.4973C183.399 19.9193 183.352 19.3252 183.394 18.734V11.5106H188.284C188.991 11.4654 189.699 11.5757 190.358 11.8335C190.754 12.0268 191.082 12.3333 191.298 12.7131C191.562 13.3808 191.72 14.0844 191.768 14.7994H192.38V7.18936H191.768C191.72 8.43857 191.393 9.27563 190.828 9.73878C190.405 10.107 189.557 10.2926 188.284 10.2954H183.398V1.66987H189.513C190.292 1.6267 191.073 1.72021 191.82 1.94606C192.328 2.12396 192.76 2.46712 193.044 2.91908C193.448 3.65261 193.705 4.4563 193.799 5.28579H194.467L194.217 0.509884H177.043V1.06651H177.845C178.558 1.01303 179.264 1.24074 179.807 1.69961C180.091 2.02254 180.238 2.90209 180.238 4.29577V18.5513C180.259 19.2514 180.197 19.9517 180.052 20.6375C179.924 20.9782 179.67 21.2588 179.341 21.4236C178.877 21.6624 178.363 21.7905 177.84 21.7975H177.038V22.4009H194.213L195.864 17.6207L196.144 16.8814H195.489H195.493ZM220.809 0.509884L220.528 5.65546H221.201C221.195 4.81644 221.441 3.99441 221.908 3.293C222.245 2.74616 222.754 2.3225 223.357 2.08627C224.078 1.90518 224.821 1.8279 225.565 1.85683H228.251V18.598C228.251 19.8005 228.156 20.5908 227.871 20.9605C227.495 21.527 226.837 21.8103 225.897 21.8103H225.082V22.4136H234.568V21.7975H233.77C233.423 21.828 233.074 21.7811 232.748 21.6605C232.421 21.5399 232.127 21.3486 231.886 21.1007C231.558 20.7735 231.416 19.9407 231.416 18.598V1.85683H234.568C235.334 1.81739 236.097 1.97711 236.78 2.31997C237.378 2.62078 237.858 3.10974 238.142 3.7094C238.413 4.32648 238.573 4.98477 238.617 5.65546H239.276L239.022 0.509884H220.809ZM212.146 1.06651H212.901C213.254 1.03626 213.61 1.08301 213.943 1.20343C214.276 1.32386 214.578 1.51501 214.828 1.76335C215.113 2.08627 215.298 2.96582 215.298 4.31277V16.9281L201.655 0.509884H195.618V1.06651C195.698 1.07748 195.778 1.09309 195.856 1.11325C196.267 1.10014 196.678 1.14594 197.076 1.24921C197.593 1.39446 198.085 1.61348 198.538 1.89932C199.075 2.35186 199.568 2.85412 200.008 3.39922V18.6108C200.008 19.8132 199.917 20.6035 199.633 20.9732C199.253 21.5298 198.598 21.823 197.611 21.823H196.856V22.4264H204.617V21.7975H203.815C203.462 21.8232 203.108 21.7743 202.775 21.6541C202.443 21.534 202.14 21.3453 201.888 21.1007C201.6 20.7749 201.457 19.9407 201.457 18.598V5.09884L216.139 22.7705H216.751V4.31277C216.751 3.0593 216.842 2.27323 217.079 1.94606C217.314 1.64435 217.623 1.40572 217.976 1.25205C218.329 1.09838 218.716 1.03458 219.101 1.06651H219.856V0.509884H212.146V1.06651ZM135.726 2.31997C135.893 2.15981 136.05 1.98952 136.196 1.81009C136.723 1.42736 137.335 1.17261 137.981 1.06651V0.509884H131.112V1.06651C131.255 1.11325 131.349 1.11325 131.393 1.15999C131.993 1.17948 132.572 1.39128 133.04 1.76335C133.174 1.87146 133.285 2.00502 133.365 2.15612C133.446 2.30721 133.495 2.47274 133.51 2.6429C133.51 3.10604 133.229 3.98984 132.712 5.23905L127.486 17.9012L121.794 5.09884C121.382 4.30362 121.125 3.43856 121.04 2.54942C121.034 2.36869 121.074 2.18935 121.156 2.02762C121.238 1.86589 121.359 1.72687 121.51 1.62313C121.794 1.34269 122.454 1.19823 123.489 1.06651V0.509884H114.408V1.06651C114.593 1.11325 114.736 1.11325 114.921 1.15999C115.296 1.1923 115.663 1.28562 116.008 1.43617C116.409 1.61951 116.762 1.88966 117.042 2.22649C117.396 2.8012 117.695 3.40719 117.935 4.03658L126.266 22.9065H126.874L134.635 4.26603C134.919 3.57676 135.285 2.92343 135.726 2.31997ZM249.612 1.06651C249.958 1.08179 250.301 1.12729 250.638 1.20248C251.15 1.34914 251.63 1.58517 252.057 1.89932C252.608 2.34493 253.114 2.84306 253.566 3.38648V18.598C253.566 19.8005 253.424 20.5908 253.191 20.9605C252.812 21.5171 252.104 21.8103 251.164 21.8103H250.41V22.4136H258.128V21.7975H257.378C257.024 21.8281 256.667 21.7815 256.333 21.6611C255.999 21.5407 255.697 21.3494 255.446 21.1007C255.118 20.7735 254.976 19.9407 254.976 18.598V5.09884L269.637 22.7705H270.249V4.31277C270.249 3.0593 270.391 2.27323 270.624 1.94606C270.85 1.64508 271.151 1.40622 271.497 1.25225C271.844 1.09828 272.225 1.03433 272.603 1.06651H273.401V0.509884H265.639V1.06651H266.476C266.83 1.04077 267.185 1.0896 267.518 1.20976C267.851 1.32992 268.154 1.51864 268.408 1.76335C268.688 2.08627 268.839 2.96582 268.839 4.31277V16.9281L255.213 0.509884H249.608V1.06651H249.612ZM153.275 18.2241L145.557 0H144.997L144.337 1.52965L137.119 17.9904C136.791 18.9396 136.315 19.8327 135.709 20.6375C135.601 20.8342 135.454 21.0075 135.278 21.1474C134.755 21.5255 134.135 21.7508 133.488 21.7975V22.4009H140.499V21.7975C139.421 21.704 138.714 21.5638 138.386 21.2876C138.24 21.19 138.121 21.0564 138.042 20.8999C137.964 20.7435 137.928 20.5696 137.938 20.3953C138.009 19.7339 138.2 19.0905 138.503 18.496L140.008 15.0161H148.632L149.994 18.2156C150.307 18.9244 150.513 19.6745 150.606 20.4421C150.598 20.6203 150.552 20.7948 150.471 20.9544C150.39 21.1139 150.276 21.255 150.136 21.3684C149.856 21.6021 149.244 21.7423 148.412 21.7933V22.3966H157.122V21.7975C156.348 21.8025 155.597 21.5393 155 21.0539C154.453 20.6375 153.888 19.6603 153.275 18.2241ZM144.337 13.8646H140.521L144.337 5.14558L144.384 5.00961L148.149 13.8646H144.337Z" fill="white"/>
</g>
<defs>
<clipPath id="clip0">
<rect width="297" height="23" fill="white"/>
</clipPath>
</defs>
</svg>
