<svg width="80" height="61" viewBox="0 0 80 61" fill="none" xmlns="http://www.w3.org/2000/svg">
<path d="M4.71618 3.96517C4.71618 1.87837 6.17693 0.876711 8.72282 0.876711C9.30712 0.876711 9.97491 0.960183 10.5592 1.12713H10.6009C10.6427 1.16886 10.6844 1.16886 10.7679 1.16886C13.5642 2.12879 15.5675 4.466 16.5274 7.38752L16.8613 8.59786C16.9031 8.68133 17.0283 8.7648 17.1117 8.7648C17.1952 8.7648 17.3204 8.68133 17.3204 8.55612V3.04698C15.6092 2.33747 14.0233 1.62796 11.9782 0.793239C11.0183 0.334144 9.93318 0.0419922 8.63937 0.0419922C4.34057 0.0419922 0.584313 2.75483 0.584313 7.09536C0.584313 15.693 14.1902 14.6496 14.1902 21.3691C14.1902 22.162 14.0233 22.6629 13.7729 23.2054C13.0216 24.6245 11.3522 25.1253 9.43231 25.1253C8.34718 25.1253 7.34554 24.9166 6.42734 24.6245L6.38562 24.5827C3.4641 23.4141 1.66945 21.0352 0.792993 18.3223L0.375634 17.112C0.375634 17.0703 0.333888 16.945 0.20868 16.945C0.0834719 16.945 0 17.0285 0 17.1537V22.2038C1.96159 23.2054 2.5459 23.7063 4.75791 24.7079C5.00832 24.8749 5.30047 25.0001 5.59263 25.1253C6.76123 25.6679 8.0133 25.9183 9.39059 25.9183C10.434 25.9183 11.4356 25.8348 12.3538 25.5844C12.5208 25.5426 12.6877 25.5009 12.7712 25.5009C16.1101 24.4992 18.4473 22.0368 18.4473 18.698C18.4473 9.59952 4.71618 10.9351 4.71618 3.96517Z" fill="#fff"/>
<path d="M37.1032 35.7673C31.6775 35.7673 30.0081 40.9426 30.0081 47.9542C30.0081 54.9241 31.7192 60.1411 37.1032 60.1411C42.5706 60.1411 44.2817 54.9659 44.2817 47.9542C44.24 41.0261 42.5289 35.7673 37.1032 35.7673ZM37.1032 60.8924C28.8812 60.8924 24.165 54.9659 24.165 47.8708C24.165 40.8174 28.8812 34.9326 37.1032 34.9326C45.4086 34.9326 50.083 40.7756 50.083 47.8708C50.0413 55.0076 45.4086 60.8924 37.1032 60.8924Z" fill="#fff"/>
<path d="M42.7372 24.8746C42.779 24.8329 42.8207 24.8329 42.9042 24.7911C43.6137 24.3738 45.2414 23.5808 47.6621 22.7878V17.07C47.6621 16.9865 47.5786 16.8613 47.4116 16.8613C47.3282 16.8613 47.2447 16.9031 47.203 17.0283L46.7856 18.4473C45.3666 22.2035 42.3616 25.1668 39.0227 25.1668C34.0144 25.2502 32.2615 20.1167 32.2615 12.9799C32.2615 5.88477 33.764 0.792983 38.6889 0.792983C42.2782 0.792983 45.7005 3.58929 46.9108 7.34553L47.3282 8.55587C47.3282 8.63934 47.4117 8.72281 47.5369 8.72281C47.7038 8.72281 47.7873 8.63934 47.7873 8.51413V3.04672C45.5335 2.212 44.4484 1.6277 42.4451 0.792983C41.36 0.292152 39.774 0 38.4802 0C30.926 0 26.502 6.09345 26.502 13.0216C26.502 19.9498 31.0095 25.9598 38.6889 25.9598C40.3583 25.9598 41.6521 25.5424 42.7372 24.8746Z" fill="#fff"/>
<path d="M67.779 1.0015L67.4869 0.291992H65.1497C65.1497 0.291992 58.1798 18.5723 57.8459 19.4905C57.1781 21.2434 56.0513 23.7893 55.1748 25.4588H60.2248C60.3918 25.4588 60.4753 25.3753 60.4753 25.2083C60.4753 25.0414 60.4335 24.9997 60.2666 24.9579C60.2248 24.9579 60.0579 24.9579 60.0162 24.9162C57.9711 24.2067 58.931 19.1566 60.0162 16.1099C61.0596 12.938 64.1063 5.09163 64.1063 5.09163L71.9526 25.4588C74.2481 25.4588 74.9159 25.4588 78.2548 25.4588C77.2531 23.0381 67.779 1.0015 67.779 1.0015Z" fill="#fff"/>
<path d="M17.9882 52.1282C17.9465 52.1282 17.8213 52.17 17.8213 52.2952L17.404 53.4638C15.3589 59.3903 13.5642 59.6824 9.22367 59.6824H7.30383C5.80133 59.6824 5.55094 59.3903 5.55094 54.382V44.0315V41.569L5.75962 35.4756H0.166992V60.5172H18.1552V52.4204C18.1969 52.2534 18.1134 52.1282 17.9882 52.1282Z" fill="#fff"/>
<path d="M78.0463 55.8845L62.4788 35.6426H57.1783V39.4823C57.1783 40.0249 57.22 40.6509 57.22 41.4021C57.22 41.4021 57.22 52.2535 57.22 52.7126C57.22 54.7159 57.1783 57.7626 56.6357 60.6424H61.0597C61.2267 60.6424 61.3101 60.5589 61.3101 60.392V60.3503C61.3101 60.2668 61.2267 60.1416 61.1015 60.1416C60.9763 60.1416 59.7659 59.7242 59.1816 58.8478C58.1382 57.1366 57.9713 53.2969 57.9713 50.5423V38.6476L75.3334 60.8511H78.088V56.0097V55.9262L78.0463 55.8845Z" fill="#fff"/>
<path d="M79.048 36.3103C77.8377 35.1417 76.2935 35.2252 75.2083 36.3103C74.1649 37.3537 74.1649 39.0649 75.2083 40.0665C75.7926 40.6508 76.4187 40.776 76.9195 41.2769C77.3786 41.6942 77.1699 42.2785 76.7525 42.6959C76.5439 42.9463 76.2934 43.1132 75.9595 43.2802C75.8761 43.3637 75.7926 43.5306 75.8761 43.6975C75.9596 43.8645 76.1682 43.9062 76.3352 43.8645C76.7943 43.6141 77.6707 43.0298 78.5054 42.3203C80.2583 40.6091 80.5088 37.6458 79.048 36.3103Z" fill="#fff"/>
</svg>
