<svg width="167" height="25" viewBox="0 0 167 25" fill="none" xmlns="http://www.w3.org/2000/svg"><path fill-rule="evenodd" clip-rule="evenodd" d="M0.36 0.490001H19.79V4.86L8.89 18.06H19.82V23.84H0V19.47L10.87 6.33H0.36V0.490001ZM142.19 12.17C142.182 10.5433 142.523 8.93378 143.19 7.45C143.83 6.00784 144.74 4.70113 145.87 3.6C147.013 2.49442 148.353 1.61257 149.82 1C151.337 0.366299 152.966 0.039997 154.61 0.039997C156.254 0.039997 157.883 0.366299 159.4 1C160.882 1.6125 162.238 2.49401 163.4 3.6C164.506 4.70448 165.389 6.01162 166 7.45C166.647 8.93783 166.98 10.5427 166.98 12.165C166.98 13.7873 166.647 15.3922 166 16.88C165.371 18.3233 164.467 19.6308 163.34 20.73C162.182 21.8399 160.825 22.7219 159.34 23.33C157.823 23.9637 156.194 24.29 154.55 24.29C152.906 24.29 151.277 23.9637 149.76 23.33C148.291 22.7213 146.95 21.839 145.81 20.73C144.68 19.6289 143.77 18.3222 143.13 16.88C142.464 15.3994 142.123 13.7934 142.13 12.17H142.19ZM148.24 12.17C148.233 13.0214 148.4 13.8652 148.73 14.65C149.048 15.3995 149.51 16.0791 150.09 16.65C150.668 17.2187 151.346 17.6763 152.09 18C153.691 18.6612 155.489 18.6612 157.09 18C158.61 17.3628 159.817 16.1518 160.45 14.63C161.111 13.0289 161.111 11.2311 160.45 9.63C160.13 8.88435 159.672 8.20581 159.1 7.63C158.526 7.05631 157.847 6.59803 157.1 6.28C155.499 5.61884 153.701 5.61884 152.1 6.28C151.356 6.60368 150.678 7.06128 150.1 7.63C149.507 8.22049 149.037 8.92367 148.72 9.69818C148.402 10.4727 148.242 11.3029 148.25 12.14L148.24 12.17ZM131 17.59C130.46 18.5892 129.787 19.5108 129 20.33C128.24 21.148 127.372 21.8579 126.42 22.44C124.457 23.6634 122.193 24.3177 119.88 24.33C118.235 24.3247 116.609 23.9845 115.1 23.33C113.633 22.7164 112.294 21.8347 111.15 20.73C110.023 19.6264 109.114 18.3202 108.47 16.88C107.817 15.3939 107.48 13.7883 107.48 12.165C107.48 10.5417 107.817 8.93613 108.47 7.45C109.114 6.00975 110.023 4.70364 111.15 3.6C112.297 2.49913 113.635 1.61789 115.1 1C116.609 0.345529 118.235 0.00527874 119.88 1.35196e-06C121.051 -0.000544862 122.216 0.164421 123.34 0.490001C124.423 0.816787 125.461 1.27699 126.43 1.86C127.383 2.44847 128.249 3.16896 129 4C129.757 4.80721 130.403 5.71187 130.92 6.69L125.47 9.14C124.954 8.14346 124.171 7.30933 123.21 6.73C122.34 6.22062 121.363 5.91947 120.357 5.85008C119.351 5.78069 118.342 5.94494 117.41 6.33C116.665 6.65144 115.987 7.1093 115.41 7.68C114.826 8.24744 114.363 8.92793 114.05 9.68C113.716 10.4712 113.544 11.3212 113.544 12.18C113.544 13.0388 113.716 13.8888 114.05 14.68C114.36 15.4334 114.823 16.1144 115.41 16.68C115.987 17.2507 116.665 17.7086 117.41 18.03C118.864 18.6624 120.504 18.7222 122 18.1974C123.496 17.6727 124.739 16.6021 125.48 15.2L131 17.59ZM69.3 23.84V0.490001H74.39L84.8 13.54V0.540001H90.8V23.84H85.7L75.28 10.84V23.84H69.3ZM48.05 0.490001V23.84H42.05V0.490001H48.05Z" fill="#F9F9F9"></path></svg>
